<?xml version="1.0" encoding="utf-8"?>
<!-- Generator: Adobe Illustrator 22.0.0, SVG Export Plug-In . SVG Version: 6.00 Build 0)  -->
<svg version="1.1" id="Calque_1" xmlns="http://www.w3.org/2000/svg" xmlns:xlink="http://www.w3.org/1999/xlink" x="0px" y="0px"
	 viewBox="0 0 512 360" style="enable-background:new 0 0 512 360;" xml:space="preserve">
<style type="text/css">
	.st0{fill:#FFFFFF;}
</style>
<title>right-arrow</title>
<g id="Calque_2_1_">
	<g id="Capa_1">
		<path class="st0" d="M344.8,5.4c-7.1-7.1-18.6-7.2-25.7-0.1S311.9,23.9,319,31l0,0l130.8,130.8H18.1c-9.9,0-18,8-18.1,17.9
			c0,0,0,0.1,0,0.1c-0.1,10,8,18.2,18,18.3c0,0,0,0,0.1,0h431.8L319,328.8c-7,7.2-7,18.6,0,25.8c7,7.1,18.4,7.2,25.6,0.2
			c0.1-0.1,0.2-0.2,0.2-0.2l161.8-161.8c7.1-6.8,7.2-18.1,0.4-25.1c-0.1-0.1-0.3-0.3-0.4-0.4L344.8,5.4z"/>
	</g>
</g>
</svg>
