<svg xmlns="http://www.w3.org/2000/svg" viewBox="0 0 210.5 285.4"><defs><style>.cls-1{fill:#1875f0;}</style></defs><title>boxing</title><g id="Calque_2" data-name="Calque 2"><g id="Capa_1" data-name="Capa 1"><path class="cls-1" d="M210.5,72.43A21.86,21.86,0,0,1,176.64,90.7l-1.07.28a318.94,318.94,0,0,1-63.6,10,61.46,61.46,0,0,0,31,14.56,21.86,21.86,0,1,1,1.65,30.39,91.61,91.61,0,0,1-44.33-16.07s-6.42,50.7-7.39,52.72A216.92,216.92,0,0,1,154.35,263l.23.52a15,15,0,1,1-27.37,12.29l-.23-.52a192.67,192.67,0,0,0-50.31-67.22,111.22,111.22,0,0,1-42.14,66.39L24,282.39a15,15,0,1,1-18-24L16.5,250.5a81.29,81.29,0,0,0,32.37-69.65l0-.52c0-.16,0-.32,0-.48,0-.31,0-.62,0-.94a74.37,74.37,0,0,1,.46-10.17L60.26,92a22.5,22.5,0,0,1,20-19.2,14.94,14.94,0,0,1,5.44-1.15l14.87-.3A288.94,288.94,0,0,0,168,62l1.73-.45A21.86,21.86,0,0,1,210.5,72.43ZM104,63.67A31.84,31.84,0,1,0,72.11,31.84,31.84,31.84,0,0,0,104,63.67Z"/></g></g></svg>