<svg xmlns="http://www.w3.org/2000/svg" viewBox="0 0 280.35 233.19"><defs><style>.cls-1{fill:#1875f0;}</style></defs><title>judo</title><g id="Calque_2" data-name="Calque 2"><g id="Capa_1" data-name="Capa 1"><path class="cls-1" d="M276.9,24.56,267.47,36a101.31,101.31,0,0,0-22.74,53.46,22.44,22.44,0,0,1,6.93,14.32c.44,4.83,0,15.76-8.13,34.7-9.89,22.9-40.07,37.49-42.91,39a15,15,0,0,1-16.76-.69,293.58,293.58,0,0,1-46.44-42.66l-7-8a15.13,15.13,0,0,1-1.27-1.7l0,0-7-8A263.46,263.46,0,0,0,98.37,92.61l-.08.14C92.48,96,72.5,114.39,74.35,131.3a130.91,130.91,0,0,1,24.4,88.06,15,15,0,1,1-29.9-2.5,101.38,101.38,0,0,0-7.67-48.24A131.26,131.26,0,0,1,36,216.36l-9.43,11.4A15,15,0,1,1,3.44,208.62l9.43-11.4A101.36,101.36,0,0,0,36,140.15l0-.29a22.39,22.39,0,0,1-5.61-12.92c-.44-4.83.05-15.76,8.23-34.69,9.07-21,36.33-35.68,43-39.18q.63-.37,1.29-.68a15,15,0,0,1,15.27,1.51,293.61,293.61,0,0,1,46.44,42.66l7,8a15.11,15.11,0,0,1,1.27,1.7l0,0,7,8a263.57,263.57,0,0,0,23.65,23.7c5.44-3.66,14.91-10.33,18.7-17.46,5.76-10.86,4.76-16.42,4.67-17.33a130.92,130.92,0,0,1-25.4-89.43,15,15,0,1,1,29.9,2.5,101.38,101.38,0,0,0,7.66,48.24,131.26,131.26,0,0,1,25.2-47.74l9.43-11.4A15,15,0,1,1,276.9,24.56ZM130.81,54.13A23.08,23.08,0,1,0,103.65,36,23.08,23.08,0,0,0,130.81,54.13Zm20.4,122.42a23.08,23.08,0,1,0,27.16,18.1A23.08,23.08,0,0,0,151.21,176.55Z"/></g></g></svg>
