<svg xmlns="http://www.w3.org/2000/svg" viewBox="0 0 301.56 266.9"><defs><style>.cls-1{fill:#1875f0;}</style></defs><title>transport-2</title><g id="Calque_2" data-name="Calque 2"><g id="Layer_1" data-name="Layer 1"><g id="_Groupe_" data-name="&lt;Groupe&gt;"><path class="cls-1" d="M301.56,137.43A109.31,109.31,0,0,0,192.25,28.12H.6V48.84h70v67.32H65.67A25.39,25.39,0,0,1,78,128.33a25.36,25.36,0,0,1,12.29-12.18H87.1V48.84h95.33V91.89a23.15,23.15,0,0,1,16.5-11.84V48.84h8.8A60.54,60.54,0,0,1,252.21,68.3C265.79,83,275,102,279,111a3.66,3.66,0,0,1-3.36,5.13H232.25a25.24,25.24,0,0,1,14.69,22.75l.15,29.72h23.27A31.19,31.19,0,0,0,301.56,137.43Z"/><path class="cls-1" d="M149.35,116.15a25.39,25.39,0,0,1,11.91,11.4,25.38,25.38,0,0,1,11.91-11.4Z"/><path class="cls-1" d="M15.12,16.5h210a8.25,8.25,0,0,0,0-16.5h-210a8.25,8.25,0,0,0,0,16.5Z"/><path class="cls-1" d="M292.48,178.2H247.14l0,16.5h45.38a8.25,8.25,0,0,0,0-16.5Z"/><path class="cls-1" d="M55.19,122.23H17.07A16.84,16.84,0,0,0,.26,138.95L0,191.11a7.1,7.1,0,0,0,7.07,7.14h0a7.1,7.1,0,0,0,7.1-7.07L14.46,139a1.37,1.37,0,0,1,2.74,0v51.24h0v68.11a8.52,8.52,0,0,0,17,0V190.27h3.68v68.11a8.52,8.52,0,0,0,17,0c0-31.85-.15-86.32-.15-119.35a1.49,1.49,0,0,1,3,0l.26,52.16a7.1,7.1,0,0,0,7.1,7.07h0a7.1,7.1,0,0,0,7.07-7.14L72,138.95A16.84,16.84,0,0,0,55.19,122.23Z"/><path class="cls-1" d="M50.9,102.82a14.72,14.72,0,1,0-14.72,14.72A14.72,14.72,0,0,0,50.9,102.82Z"/><path class="cls-1" d="M138.86,122.23H100.74a16.84,16.84,0,0,0-16.8,16.72l-.26,52.16a7.1,7.1,0,0,0,7.07,7.14h0a7.1,7.1,0,0,0,7.1-7.07L98.14,139a1.37,1.37,0,0,1,2.74,0v51.25h0v68.11a8.52,8.52,0,0,0,17,0V190.27h3.68v68.11a8.52,8.52,0,0,0,17,0c0-112.69-.15-48.16-.15-119.35a1.49,1.49,0,0,1,3,0l.26,52.16a7.1,7.1,0,0,0,7.1,7.07h0a7.1,7.1,0,0,0,7.07-7.14l-.26-52.16A16.85,16.85,0,0,0,138.86,122.23Z"/><path class="cls-1" d="M134.58,102.82a14.72,14.72,0,1,0-14.72,14.72A14.72,14.72,0,0,0,134.58,102.82Z"/><path class="cls-1" d="M221.77,122.23H183.65a16.84,16.84,0,0,0-16.8,16.72l-.26,52.16a7.1,7.1,0,0,0,7.07,7.14h0a7.1,7.1,0,0,0,7.1-7.07L181,139a1.37,1.37,0,0,1,2.74,0v51.25h0v68.11a8.52,8.52,0,1,0,17,0V190.27h3.68v68.11a8.52,8.52,0,0,0,17,0c0-112.69-.15-48.16-.15-119.35a1.49,1.49,0,0,1,3,0l.26,52.16a7.1,7.1,0,0,0,7.1,7.07h0a7.1,7.1,0,0,0,7.07-7.14l-.26-52.16A16.85,16.85,0,0,0,221.77,122.23Z"/><path class="cls-1" d="M217.48,102.82a14.72,14.72,0,1,0-14.72,14.72A14.72,14.72,0,0,0,217.48,102.82Z"/></g></g></g></svg>