<svg xmlns="http://www.w3.org/2000/svg" viewBox="0 0 491.74 431.1"><defs><style>.cls-1{fill:#1875f0;}</style></defs><title>rider</title><g id="Calque_2" data-name="Calque 2"><g id="Capa_1" data-name="Capa 1"><path class="cls-1" d="M321.1,82a44.06,44.06,0,1,0-15.64-60.31A44,44,0,0,0,321.1,82Z"/><path class="cls-1" d="M393.08,233.78c-2.41,0-4.8.19-7.17.36l-14.43-71.61,4.7-1.76a20.62,20.62,0,1,0-14.43-38.63l-51.82,19.38-2.32-18.86c6.3-13.19,5.54-29.78-4.77-41.48-21.22-24.09-47.12-12.51-55.19-6L140.76,161.76l0,0A28.39,28.39,0,0,0,131.36,189a16.38,16.38,0,0,0,1.18,32.73l-6.8,15.91a99,99,0,1,0,22.73,9.76l11-25.65h17.77l60.28,24.46L205.27,299a28.87,28.87,0,1,0,49.29,30.08L283.9,281,303,292.48a98.6,98.6,0,1,0,90.11-58.7ZM98.67,406.35a73.92,73.92,0,1,1,17.19-145.6L95.38,308.64a24.07,24.07,0,1,0,23.88,36.16h52.07A73.86,73.86,0,0,1,98.67,406.35Zm72.65-86.29H119.26c-.36-.59-.71-1.18-1.11-1.73l20.48-47.9A73.77,73.77,0,0,1,171.32,320.06Zm125.46-60.21,7.67-12.56a28.87,28.87,0,0,0-13.79-41.79l-52.73-21.4,32.44-26.28,1.8,14.69a20.61,20.61,0,0,0,27.68,16.8l48.15-18L361.63,239a98.87,98.87,0,0,0-45.85,32.31Zm78.61,47.46-38-22.94a73.77,73.77,0,0,1,29.2-20.73Zm17.68,99a73.56,73.56,0,0,1-68.64-100.9L369,332.34s0,.06,0,.1a24.12,24.12,0,1,0,32.17-22.64l-10.28-51c.76,0,1.46-.23,2.22-.23a73.91,73.91,0,0,1,0,147.83Z"/></g></g></svg>