<svg xmlns="http://www.w3.org/2000/svg" viewBox="0 0 298.41 244.66"><defs><style>.cls-1{fill:#1875f0;}</style></defs><title>train</title><g id="Calque_2" data-name="Calque 2"><g id="Layer_1" data-name="Layer 1"><g id="_Groupe_" data-name="&lt;Groupe&gt;"><circle class="cls-1" cx="76.19" cy="54.21" r="14.42"/><path class="cls-1" d="M229.43,24.23h7.08a12.12,12.12,0,1,0,0-24.23H160.77a12.12,12.12,0,1,0,0,24.23h7.08a99.92,99.92,0,0,0-67.2,76.11c-.39,2-.72,4.11-1,6.2l-19.91-2.2L68.35,82.25l14.2,15.83,2.66-11.7a9.74,9.74,0,0,0-7.34-11.66L60.93,70.87a14.68,14.68,0,0,0-5.76-.12l-26.9,7.81A6.53,6.53,0,0,0,23.63,84l-4.68,35a6.53,6.53,0,0,0,13,1.73L36,89.93l11.35-3.3-9.74,36.49-3.19,31.49-21.51,37H7.61a7.61,7.61,0,1,0,0,15.22h99.05a29.61,29.61,0,0,0,18.75,9.47l-19.28,22.56a3.5,3.5,0,0,0,2.66,5.77H130a6.67,6.67,0,0,0,5.07-2.34l22.08-25.83H238l22.08,25.83a6.67,6.67,0,0,0,5.07,2.34H286.4a3.5,3.5,0,0,0,2.66-5.77l-19.17-22.43a29.68,29.68,0,0,0,28.52-29.65V119.16A99.81,99.81,0,0,0,229.43,24.23ZM30.53,191.64h0L48.35,161a7.61,7.61,0,0,0,1-2.79l3.81-27.82,5.37,1.22,12,27.29,1.1,32.79Zm56.3,0h0l-1.17-34.76a7.6,7.6,0,0,0-.64-2.81L75,131.3l1.78-7.84-2.65-.29a12.78,12.78,0,0,1-10-6.86,6.25,6.25,0,0,1-.51-1.35l-6.5-25.91,12.58,24.39a6.61,6.61,0,0,0,.42.7,6.54,6.54,0,0,0,4.67,2.8l24,2.66v67.21a29.88,29.88,0,0,0,.4,4.83H86.83ZM141.49,183a16.74,16.74,0,1,1,16.74-16.74A16.74,16.74,0,0,1,141.49,183Zm48.07-65.07H116.36a82.3,82.3,0,0,1,73.42-80.81ZM257.8,183a16.74,16.74,0,1,1,16.74-16.74A16.74,16.74,0,0,1,257.8,183Zm-50.59-65.07.22-80.82a82.3,82.3,0,0,1,73.49,80.82Z"/></g></g></g></svg>